<svg width="932" height="932" xmlns="http://www.w3.org/2000/svg" xmlns:xlink="http://www.w3.org/1999/xlink" overflow="hidden"><defs><clipPath id="clip0"><rect x="1937" y="643" width="932" height="932"/></clipPath></defs><g clip-path="url(#clip0)" transform="translate(-1937 -643)"><path d="M1937 798.337C1937 712.547 2006.55 643 2092.34 643L2713.66 643C2799.45 643 2869 712.547 2869 798.337L2869 1419.66C2869 1505.45 2799.45 1575 2713.66 1575L2092.34 1575C2006.55 1575 1937 1505.45 1937 1419.66Z" fill="#2B5274" fill-rule="evenodd"/><path d="M2000.88 853.449C1995.62 817.562 2020.45 784.208 2056.34 778.952L2371.95 732.729C2407.84 727.474 2441.19 752.306 2446.45 788.193L2484.51 1048.11C2489.77 1084 2464.94 1117.35 2429.05 1122.6L2113.44 1168.83C2077.55 1174.08 2044.2 1149.25 2038.94 1113.36Z" stroke="#FFFFFF" stroke-width="20.625" stroke-miterlimit="8" fill="none" fill-rule="evenodd"/><path d="M2302 837.215C2299.21 818.144 2312.41 800.419 2331.48 797.626 2350.55 794.833 2368.27 808.029 2371.07 827.1 2373.86 846.172 2360.66 863.896 2341.59 866.689 2322.52 869.482 2304.8 856.286 2302 837.215Z" fill="#FFFFFF" fill-rule="evenodd"/><path d="M2154.63 905.672C2157.4 902.55 2162.18 902.267 2165.3 905.04L2285.78 1012.06C2288.9 1014.83 2289.18 1019.61 2286.41 1022.73L2157.39 1167.98C2154.62 1171.1 2149.84 1171.39 2146.72 1168.61L2026.24 1061.6C2023.12 1058.82 2022.83 1054.04 2025.61 1050.92Z" stroke="#FFFFFF" stroke-width="4.58333" stroke-miterlimit="8" fill="#FFFFFF" fill-rule="evenodd"/><path d="M2353.31 937.629C2355.03 935.692 2358 935.517 2359.94 937.237L2482.22 1045.86C2484.16 1047.58 2484.33 1050.54 2482.61 1052.48L2416.22 1127.23C2414.5 1129.16 2411.53 1129.34 2409.6 1127.62L2287.31 1019C2285.37 1017.28 2285.2 1014.31 2286.92 1012.38Z" stroke="#FFFFFF" stroke-width="4.58333" stroke-miterlimit="8" fill="#FFFFFF" fill-rule="evenodd"/><path d="M2053.21 1054.81 2415.64 1001.74 2431.51 1110.06 2069.08 1163.14Z" stroke="#FFFFFF" stroke-width="4.58333" stroke-miterlimit="8" fill="#FFFFFF" fill-rule="evenodd"/><path d="M2042.62 1065.97 2092.62 1058.65 2103.48 1132.78 2053.48 1140.1Z" stroke="#FFFFFF" stroke-width="4.58333" stroke-miterlimit="8" fill="#FFFFFF" fill-rule="evenodd"/><path d="M2457.94 1034.55 2486.54 1076.21 2416.21 1124.48 2387.62 1082.83Z" stroke="#FFFFFF" stroke-width="4.58333" stroke-miterlimit="8" fill="#FFFFFF" fill-rule="evenodd"/><path d="M2378.17 1105.64C2385.32 1070.08 2419.94 1047.05 2455.5 1054.19L2768.23 1117.05C2803.78 1124.19 2826.82 1158.81 2819.67 1194.37L2767.91 1451.91C2760.76 1487.47 2726.14 1510.5 2690.58 1503.35L2377.86 1440.5C2342.3 1433.35 2319.27 1398.73 2326.41 1363.17Z" stroke="#FFFFFF" stroke-width="20.625" stroke-miterlimit="8" fill="none" fill-rule="evenodd"/><path d="M2667.16 1191.84C2670.95 1172.95 2689.35 1160.71 2708.25 1164.5 2727.15 1168.3 2739.39 1186.7 2735.59 1205.6 2731.79 1224.49 2713.39 1236.73 2694.5 1232.94 2675.6 1229.14 2663.36 1210.74 2667.16 1191.84Z" fill="#FFFFFF" fill-rule="evenodd"/><path d="M2505.33 1206.62C2508.99 1204.62 2513.59 1205.96 2515.59 1209.63L2592.95 1350.99C2594.96 1354.65 2593.61 1359.25 2589.95 1361.25L2419.53 1454.52C2415.86 1456.52 2411.27 1455.18 2409.26 1451.52L2331.9 1310.16C2329.9 1306.49 2331.24 1301.9 2334.9 1299.89Z" stroke="#FFFFFF" stroke-width="4.58333" stroke-miterlimit="8" fill="#FFFFFF" fill-rule="evenodd"/><path d="M2681.62 1303.68C2683.89 1302.43 2686.74 1303.27 2687.99 1305.54L2766.51 1449.02C2767.75 1451.29 2766.92 1454.14 2764.65 1455.39L2676.95 1503.38C2674.67 1504.63 2671.82 1503.79 2670.58 1501.52L2592.06 1358.04C2590.81 1355.77 2591.65 1352.92 2593.92 1351.67Z" stroke="#FFFFFF" stroke-width="4.58333" stroke-miterlimit="8" fill="#FFFFFF" fill-rule="evenodd"/><path d="M2359.58 1312.86 2718.7 1385.04 2697.13 1492.37 2338.01 1420.2Z" stroke="#FFFFFF" stroke-width="4.58333" stroke-miterlimit="8" fill="#FFFFFF" fill-rule="evenodd"/><path d="M2345.85 1319.8 2395.39 1329.75 2380.63 1403.21 2331.09 1393.25Z" stroke="#FFFFFF" stroke-width="4.58333" stroke-miterlimit="8" fill="#FFFFFF" fill-rule="evenodd"/><path d="M2747.46 1430.19 2760.34 1479.05 2677.86 1500.8 2664.98 1451.94Z" stroke="#FFFFFF" stroke-width="4.58333" stroke-miterlimit="8" fill="#FFFFFF" fill-rule="evenodd"/><path d="M2102.5 905C2102.5 877.11 2124.89 854.5 2152.5 854.5 2180.11 854.5 2202.5 877.11 2202.5 905 2202.5 932.891 2180.11 955.5 2152.5 955.5 2124.89 955.5 2102.5 932.891 2102.5 905Z" stroke="#F8532C" stroke-width="4.58333" stroke-miterlimit="8" fill="#F8532C" fill-rule="evenodd"/><path d="M2461.5 1225.5C2461.5 1197.89 2484.11 1175.5 2512 1175.5 2539.89 1175.5 2562.5 1197.89 2562.5 1225.5 2562.5 1253.11 2539.89 1275.5 2512 1275.5 2484.11 1275.5 2461.5 1253.11 2461.5 1225.5Z" stroke="#F8532C" stroke-width="4.58333" stroke-miterlimit="8" fill="#F8532C" fill-rule="evenodd"/><path d="M2151.5 946.5C2174.68 981.817 2197.87 1017.13 2244.87 1045.57 2291.88 1074.01 2391.92 1094.8 2433.52 1117.12 2475.13 1139.44 2484.81 1159.47 2494.5 1179.5" stroke="#F8532C" stroke-width="20.625" stroke-miterlimit="8" fill="none" fill-rule="evenodd"/></g></svg>